# xmcd
#
# Track frame offsets:
#	150
#	20772
#	32577
#	50297
#	72935
#	89167
#	119492
#	143102
#	165000
#	180900
#	214370
#
# Disc length: 3605 seconds
#
# Revision: 1
# Processed by: cddbd v1.5PL3 Copyright (c) Steve Scherf et al.
# Submitted via: MusicWizard 7.0.2
#
DISCID=950e130b
DTITLE=Dussex' Soultrain - Steam
DYEAR=1997
DGENRE=Funk
TTITLE0=No Time To Waste Time
TTITLE1=Down To The Night Club
TTITLE2=Don't Change Horses
TTITLE3=Drown In My Own Tears
TTITLE4=Will It Go'round In Circles
TTITLE5=I Want To Ta-Ta You Baby
TTITLE6=Nuclear Blues
TTITLE7=Cold Sweat
TTITLE8=Talkin' Loud
TTITLE9=Inner City Blues
TTITLE10=You Gotta Funkifize
EXTD=
EXTT0=
EXTT1=
EXTT2=
EXTT3=
EXTT4=
EXTT5=
EXTT6=
EXTT7=
EXTT8=
EXTT9=
EXTT10=
PLAYORDER=
